<svg xmlns="http://www.w3.org/2000/svg" width="25" height="25">
    <path fill="none" fill-opacity=".4" fill-rule="evenodd" d="M0-.001h24V24H0V-.001z"/>
    <path fill="none" fill-rule="evenodd" stroke="#222" stroke-width="2" d="M4 3h15.999c1.107 0 2 .893 2 2v15.999c0 1.107-.893 2-2 2H4c-1.106 0-2-.893-2-2V5c0-1.107.894-2 2-2z"/>
    <path fill="#222" fill-rule="evenodd" d="M2 7.999h19.999v2H2v-2zM6.999.999a1 1 0 0 1 1.001 1V6a1 1 0 0 1-1.001.999A.999.999 0 0 1 6 6V1.999c0-.553.447-1 .999-1zM17 .999a1 1 0 0 1 1 1V6a.999.999 0 1 1-2 0V1.999a1 1 0 0 1 1-1z"/>
</svg>
